<svg xmlns="http://www.w3.org/2000/svg" width="180" height="44" fill="none">
  <path fill="#fff" d="M34.24 27.1V39a9.33 9.33 0 0 1-1.62-4c-.3.65-.57 1.32-1.14 1.85a5.28 5.28 0 0 1-4.8 1.22c.33-.2 1.37-1.05 1.8-1.48 1.46-1.44 2.6-2.88 4.22-4.09 0 0-.83-.36-3.21.49-2.27.82-4.06 2.24-7.71 2.12-1.49-.05-2.06-1.1-2.06-1.1 2.58-.52 6.76-2.32 8.65-2.94-2.44-1.71-5.17-.8-7.16-.62-1.42.13-5.4-.29-6.87-3.58 0 0 3.62.58 5.05.62 2.09.03 3.28.16 5.35.33-2-1.44-6.26-1.76-8.46-2.4-1.5-.43-3.75-1.25-4.9-2.12a7.14 7.14 0 0 1-2.68-3.86c2.64 1.26 13.8 4.13 13.8 4.13-7.46-7.26-9.8-3.84-14.52-8.55C4.06 11.12 4 4.8 4 4.8c2.45 2.46 11.93 8.17 13.25 9.07.82.54 6.93 4.37 7.43 4.7 1.55 1.17 3.4 1.3 4.6 1.94 1.2.65 4.75 6.19 4.95 6.6Zm90.63 8.78-2.26-7.57h-2.48l3.72 10.68h2.04l3.71-10.68h-2.47l-2.26 7.57Zm-12.77-2.44v.97h-6.94c.07.89.57 2.68 2.81 2.68 1.1 0 2.13-.42 2.81-1.3l1.16 1.4a4.7 4.7 0 0 1-4.1 2c-1.84 0-5.09-.9-5.09-5.55 0-3 1.83-5.63 4.82-5.63 4.08-.02 4.54 3.74 4.54 5.43Zm-2.35-.78c-.04-1.14-.42-2.58-2.2-2.58-1.47 0-2.15 1.14-2.35 2.58h4.55Zm-17.68.78v.97h-6.95c.07.89.57 2.68 2.81 2.68 1.1 0 2.13-.42 2.81-1.3l1.16 1.4a4.7 4.7 0 0 1-4.1 2c-1.84 0-5.08-.9-5.08-5.55 0-3 1.82-5.63 4.81-5.63 4.07-.02 4.54 3.74 4.54 5.43Zm-2.36-.78c-.04-1.14-.42-2.58-2.2-2.58-1.47 0-2.15 1.14-2.35 2.58h4.55Zm49.24.78v.97h-6.94c.07.89.57 2.68 2.81 2.68 1.09 0 2.13-.42 2.81-1.3l1.16 1.4a4.7 4.7 0 0 1-4.1 2c-1.84 0-5.09-.9-5.09-5.55 0-3 1.83-5.63 4.82-5.63 4.08-.02 4.53 3.74 4.53 5.43Zm-2.34-.78c-.03-1.14-.42-2.58-2.2-2.58-1.46 0-2.15 1.14-2.35 2.58h4.55Zm-38.66.01c-.93-.22-2.35-.45-2.35-1.49 0-.43.28-1.32 1.8-1.32 1.44 0 1.88.92 1.9 1.56h2.4c-.02-1.64-1.3-3.41-4.3-3.41-2.56 0-4.15 1.5-4.15 3.27 0 2.45 3.05 3.05 3.87 3.2 2.16.43 2.29 1.04 2.29 1.59 0 .38-.2 1.27-1.94 1.27-1.7 0-2.1-.94-2.2-1.56H92.9c.12 2.03 2.1 3.42 4.54 3.42 2.8 0 4.34-1.46 4.34-3.27 0-2.57-2.86-3.04-3.83-3.26Zm17.83-3.4-.1-1.08h-2.19v10.8h2.4V31.4c.38-.84 1.12-1.3 2.22-1.3.33 0 .65.06.97.11l.02-2.07a2.4 2.4 0 0 0-.86-.13c-1.03 0-1.89.35-2.45 1.27Zm-36.81 3.6 3.3 6.12h-2.75l-2.88-5.53h-2.77v5.53h-2.5V24.61h5.04c4.15 0 5.17 2.32 5.17 4.35a3.94 3.94 0 0 1-2.61 3.91Zm.15-3.8c0-.76-.25-2.44-2.61-2.44h-2.63v4.82h2.56c2.3 0 2.68-1.57 2.68-2.37Zm14.02-11.12a3.27 3.27 0 0 1-2.83 1.42c-3.18 0-4.2-3.24-4.2-5.6 0-2.36 1-5.6 4.2-5.6 1.3 0 2.37.93 2.73 1.42V4.8h2.39V19.2h-2.2l-.1-1.24Zm-.09-6.35a2.23 2.23 0 0 0-2.12-1.3c-2.1 0-2.41 2.22-2.41 3.49s.32 3.5 2.4 3.5c.98 0 1.7-.46 2.13-1.31V11.6Zm8.85 7.77c-1.84 0-5.08-.9-5.08-5.55 0-3 1.82-5.64 4.81-5.64 4.07 0 4.54 3.77 4.54 5.46v.97h-6.95c.07.88.57 2.67 2.81 2.67 1.1 0 2.13-.42 2.81-1.3l1.16 1.4c-.44.62-1.62 2-4.1 2Zm-2.64-6.52h4.55c-.03-1.14-.42-2.58-2.2-2.58-1.47 0-2.15 1.14-2.35 2.58Zm66.59-4.67c-1.02 0-2.33.34-3.11 1.3l-.1-1.1h-2.2V19.2h2.4v-7.6a2.3 2.3 0 0 1 2.16-1.3c1.6 0 1.87 1.14 1.87 2.13v6.77h2.4v-7.04c-.08-2.56-1.21-3.97-3.42-3.97Zm10.14 2.1V8.36h-1.95V5.93h-2.39v2.45h-1.74v1.91h1.74v6.06c0 2.02.92 3.04 2.75 3.04.5 0 1.02-.08 1.57-.23v-2a3.6 3.6 0 0 1-.84.12c-.95 0-1.1-.5-1.1-1.15v-5.86h1.96Zm-16.93 3.36v.97h-6.94c.06.88.56 2.67 2.8 2.67 1.1 0 2.13-.42 2.82-1.3l1.15 1.4a4.7 4.7 0 0 1-4.1 2.01c-1.84 0-5.08-.9-5.08-5.55 0-3 1.82-5.64 4.81-5.64 4.07-.02 4.54 3.75 4.54 5.44Zm-2.36-.79c-.03-1.14-.42-2.58-2.2-2.58-1.46 0-2.15 1.14-2.35 2.58h4.55Zm-33.49 6.52c-1.84 0-5.08-.9-5.08-5.55 0-3 1.82-5.64 4.81-5.64 4.07 0 4.54 3.77 4.54 5.46v.97h-6.95c.07.88.57 2.67 2.81 2.67 1.1 0 2.13-.42 2.82-1.3l1.15 1.4c-.42.62-1.62 2-4.1 2Zm-2.64-6.52h4.55c-.04-1.14-.42-2.58-2.2-2.58-1.45 0-2.15 1.14-2.35 2.58Zm25.37-8.05h2.4V19.2h-2.2l-.1-1.24a3.27 3.27 0 0 1-2.82 1.42c-3.18 0-4.2-3.24-4.2-5.6 0-2.36 1-5.6 4.2-5.6 1.3 0 2.37.93 2.72 1.42V4.8Zm0 6.8a2.23 2.23 0 0 0-2.12-1.3c-2.1 0-2.4 2.22-2.4 3.49s.3 3.5 2.4 3.5c.97 0 1.69-.46 2.12-1.31V11.6Zm-14.7 0a2.3 2.3 0 0 1 2.16-1.3c1.6 0 1.87 1.13 1.87 2.12v6.77h2.4v-7.04c-.04-2.54-1.18-3.95-3.38-3.95-1.03 0-2.33.33-3.12 1.29l-.1-1.09h-2.19v10.8h2.4v-7.6h-.04Zm-18.58 7.77a3.7 3.7 0 0 1-2.73-1.42v4.82h-2.4V8.38h2.2l.1 1.24a3.27 3.27 0 0 1 2.83-1.42c3.17 0 4.2 3.25 4.2 5.6 0 2.36-1 5.57-4.2 5.57Zm1.8-5.58c0-1.3-.31-3.5-2.4-3.5-.98 0-1.7.45-2.13 1.3v4.39c.43.85 1.14 1.3 2.13 1.3 2.07 0 2.4-2.22 2.4-3.5Zm-29.72 5.38v-7.04c-.03-2.54-1.17-3.95-3.38-3.95-1.02 0-2.32.34-3.11 1.3l-.1-1.1h-2.2V19.2h2.4v-7.6a2.3 2.3 0 0 1 2.16-1.3c1.6 0 1.87 1.14 1.87 2.13v6.77h2.36v-.02ZM73.88 4.8H71.4V19.2h2.5V4.8Zm-34.2 22.3h2.49v-2.5h-2.5v2.5Zm0 11.9h2.49l-2.5-2.5V39Zm0-3.97h2.49v-2.5h-2.5v2.5ZM38.2 27.1v-2.5l-2.49 2.5h2.5Zm-2.49 3.97h2.5v-2.5h-2.5v2.5Zm0 3.96h2.5v-2.5h-2.5v2.5Zm15.86-7.93 2.5-2.5h-2.5v2.5Zm0 3.97 2.5-2.5h-2.5v2.5Zm0-11.9h2.5v-2.49h-2.5v2.5Zm7.93-3.96H62v-2.5h-2.5v2.5Zm0 7.93 2.5-2.5h-2.5v2.5Zm-3.97 0h2.5v-2.5h-2.5v2.5ZM43.64 27.1h2.5v-2.5h-2.5v2.5Zm0 3.97h2.5v-2.5h-2.5v2.5Zm0-7.93h2.5v-2.5h-2.5v2.5Zm6.46-3.97v-2.49l-2.5 2.5h2.5Zm-2.5 3.97h2.5v-2.5h-2.5v2.5Zm0 7.93h2.5v-2.5h-2.5v2.5Zm0 3.96h2.5l-2.5-2.5v2.5ZM65.96 7.28V4.8l-2.49 2.5h2.5v-.02Z"/>
</svg>
