<svg xmlns="http://www.w3.org/2000/svg" width="44" height="44" viewBox="0 0 44 44" fill="none">
  <path
    d="M0.999998 22C0.447714 22 -0.0023747 21.552 0.0227183 21.0003C0.20466 16.9998 1.47578 13.1177 3.70767 9.77746C6.12506 6.15958 9.56099 3.33978 13.581 1.67465C17.6009 0.00952379 22.0244 -0.426149 26.292 0.422727C30.5596 1.2716 34.4796 3.3669 37.5563 6.44365C40.6331 9.52041 42.7284 13.4404 43.5773 17.708C44.4261 21.9756 43.9905 26.3991 42.3253 30.419C40.6602 34.439 37.8404 37.8749 34.2225 40.2923C30.8823 42.5242 27.0002 43.7953 22.9997 43.9773C22.448 44.0024 22 43.5523 22 43L22 41.1355C22 40.5832 22.4481 40.1384 22.9995 40.1079C26.2353 39.9294 29.3709 38.8863 32.0755 37.0791C35.0579 35.0864 37.3824 32.254 38.755 28.9402C40.1276 25.6263 40.4868 21.9799 39.787 18.4619C39.0873 14.944 37.36 11.7126 34.8237 9.17628C32.2874 6.63999 29.056 4.91275 25.5381 4.21299C22.0201 3.51323 18.3737 3.87237 15.0599 5.245C11.746 6.61763 8.91365 8.9421 6.9209 11.9245C5.1137 14.6291 4.07065 17.7647 3.89207 21.0005C3.86164 21.5519 3.4168 22 2.86452 22L0.999998 22Z"
    fill="currentColor" />
</svg>
